[img]http://img813.imageshack.us/img813/842/underworldu.jpg[/img]
[code]
Underworld Awakening 2012 TS READNFO XviD-26K

Imdb: 
http://www.imdb.com/title/tt1496025/

Plot:
When human forces discover the existence of the Vampire and Lycan clans, a war to eradicate both 

species commences. The vampire warrioress Selene leads the battle against humankind.

Sources:
VIDEO-SIC
AUDIO-SIC THNXS TO BOTH!!

Notes:
READNFO
becasue the start of the  video it has cam audio but the rest is line audio:)!!
so this is a mix of cam/TS :)
added a few filters to the video to make it look nice !
enjoy and big thnxs to SIC for the line keep up the great work !

Greetz:
Xtreme 

Encode|FYA|ILLUMANTI|CM8|RX|VISION|HDSCENE|NIGHTMAREZ|xTriLL|DTRG|CRYS|REMIXHD|BIDA|RX|REFILL|INSPiRAL

|SIC|ZOMBIESZ|HOPE|Anonymous|GooN
To all the people who have helped me :P you know who you are

Anything to offer email us @: 26k@hushmail.me

Video
ID                                       : 0
Format                                   : MPEG-4 Visual
Format profile                           : Advanced Simple@L5
Format settings, BVOP                    : 2
Format settings, QPel                    : No
Format settings, GMC                     : No warppoints
Format settings, Matrix                  : Default (H.263)
Muxing mode                              : Packed bitstream
Codec ID                                 : XVID
Codec ID/Hint                            : XviD
Duration                                 : 1h 15mn
Bit rate                                 : 1 795 Kbps
Width                                    : 720 pixels
Height                                   : 320 pixels
Display aspect ratio                     : 2.25:1
Frame rate                               : 25.000 fps
Color space                              : YUV
Chroma subsampling                       : 4:2:0
Bit depth                                : 8 bits
Scan type                                : Progressive
Compression mode                         : Lossy
Bits/(Pixel*Frame)                       : 0.312
Stream size                              : 966 MiB (93%)
Writing library                          : XviD 64

Audio
ID                                       : 1
Format                                   : MPEG Audio
Format version                           : Version 1
Format profile                           : Layer 3
Mode                                     : Joint stereo
Mode extension                           : MS Stereo
Codec ID                                 : 55
Codec ID/Hint                            : MP3
Duration                                 : 1h 15mn
Bit rate mode                            : Constant
Bit rate                                 : 128 Kbps
Channel(s)                               : 2 channels
Sampling rate                            : 44.1 KHz
Compression mode                         : Lossy
Stream size                              : 68.9 MiB (7%)
Alignment                                : Split accross interleaves
Interleave, duration                     : 16366 ms (409.16 video frames)
Writing library                          : LAME3.98r
Encoding settings                        : -m j -V 4 -q 2 -lowpass 17 -b 128

[/code]
Screens:
[img]http://img708.imageshack.us/img708/2027/vlcsnap2012020921h57m06.png[/img]
[img]http://img46.imageshack.us/img46/5726/vlcsnap2012020921h57m09.png[/img]
[img]http://img716.imageshack.us/img716/879/vlcsnap2012020921h57m12.png[/img]
[img]http://img51.imageshack.us/img51/3475/vlcsnap2012020921h57m17.png[/img]
[img]http://img717.imageshack.us/img717/552/vlcsnap2012020921h57m22.png[/img]


[img]http://img851.imageshack.us/img851/5503/26ks.jpg[/img]
Thank you smallz for banner!